<?xml version="1.0" standalone="no"?>
<!DOCTYPE svg PUBLIC "-//W3C//DTD SVG 20010904//EN"
 "http://www.w3.org/TR/2001/REC-SVG-20010904/DTD/svg10.dtd">
<svg version="1.0" xmlns="http://www.w3.org/2000/svg"
 width="450.000000pt" height="450.000000pt" viewBox="0 0 450.000000 450.000000"
 preserveAspectRatio="xMidYMid meet">
<metadata>
Created by potrace 1.10, written by Peter Selinger 2001-2011
</metadata>
<g transform="translate(0.000000,450.000000) scale(0.050000,-0.050000)"
fill="#000000" stroke="none">
<path d="M5240 7538 c-269 -121 -598 -269 -730 -327 -132 -59 -307 -139 -390
-177 -82 -38 -280 -128 -440 -200 -159 -72 -600 -272 -980 -445 -379 -173
-775 -352 -880 -399 -217 -98 -329 -149 -757 -348 -168 -78 -311 -142 -317
-142 -5 0 -63 -33 -128 -73 l-118 -73 0 -142 c0 -78 -10 -342 -23 -587 -37
-695 -254 -390 1511 -2115 405 -396 844 -826 975 -956 185 -183 247 -233 277
-224 21 7 221 100 444 208 426 206 641 309 956 457 105 49 379 180 610 290
231 110 501 238 600 285 99 46 455 215 790 376 336 160 885 421 1220 581 l610
289 13 177 c7 97 16 385 20 639 l7 461 -58 79 c-32 43 -155 173 -274 288 -119
116 -680 669 -1249 1230 -568 561 -1052 1031 -1076 1044 -74 42 -111 30 -613
-196z m520 103 c0 -17 44 -38 90 -42 11 -2 31 -11 44 -22 13 -11 35 -14 48 -6
15 10 19 7 10 -7 -16 -27 45 -128 69 -113 9 5 25 -5 34 -22 10 -18 40 -43 67
-57 28 -14 46 -39 42 -58 -3 -19 3 -34 14 -34 11 0 82 -64 159 -141 77 -78
144 -139 148 -135 12 10 135 -137 135 -161 0 -12 22 -28 49 -35 27 -6 56 -31
63 -54 12 -39 68 -110 68 -86 0 6 21 -9 46 -34 25 -24 44 -47 41 -52 -3 -4 34
-34 84 -67 49 -32 89 -74 89 -92 1 -23 5 -26 16 -9 10 16 23 6 40 -31 44 -101
223 -259 225 -199 0 16 11 12 28 -11 16 -20 23 -49 18 -65 -7 -16 13 -41 48
-62 33 -18 76 -58 97 -88 20 -31 43 -51 51 -46 7 4 32 -14 53 -42 22 -27 50
-50 62 -50 12 0 22 -17 22 -37 0 -54 80 -125 81 -71 0 29 8 23 32 -22 32 -59
107 -143 107 -120 0 7 10 6 22 -1 16 -10 15 -19 -4 -30 -18 -12 -10 -20 28
-30 49 -12 63 -31 56 -75 -1 -9 9 -14 23 -13 48 7 77 -1 67 -17 -13 -21 60
-85 77 -68 7 7 7 -3 0 -22 -7 -19 -4 -34 7 -34 45 0 164 -135 164 -187 0 -60
-75 -139 -122 -127 -17 5 -42 -8 -55 -29 -13 -20 -41 -37 -62 -37 -21 0 -44
-18 -51 -40 -7 -21 -19 -38 -26 -37 -52 7 -81 -6 -71 -33 15 -41 -13 -38 -45
5 -25 32 -27 31 -28 -15 -1 -48 -2 -49 -31 -11 -16 21 -29 28 -29 15 0 -13
-18 -24 -40 -24 -22 0 -40 -8 -40 -18 0 -15 -72 -44 -130 -51 -11 -2 -17 -15
-14 -29 3 -17 -6 -22 -24 -16 -16 7 -40 -1 -53 -17 -13 -16 -16 -30 -6 -32 46
-8 59 -12 90 -25 40 -18 117 19 117 54 0 26 46 38 144 39 30 1 50 8 44 18 -14
22 54 21 90 -1 16 -10 41 -13 57 -7 19 7 21 15 7 24 -13 8 9 26 48 41 38 15
70 35 70 44 0 9 26 16 58 16 67 0 103 -81 59 -134 -20 -23 -19 -38 1 -70 18
-29 19 -47 4 -62 -31 -31 -27 -95 8 -135 39 -42 19 -111 -22 -77 -23 18 -28
13 -28 -30 0 -28 9 -52 20 -52 11 0 20 -18 20 -40 0 -22 -10 -40 -22 -40 -15
0 -16 -9 -4 -25 72 -97 -24 -275 -148 -275 -44 0 -66 -10 -66 -29 0 -15 -18
-34 -40 -41 -22 -7 -40 -21 -40 -32 0 -10 -31 -16 -69 -11 -43 4 -68 -1 -65
-15 2 -12 -16 -21 -40 -21 -24 1 -40 -5 -35 -13 5 -8 -9 -21 -32 -28 -40 -13
-40 -15 -5 -42 33 -26 32 -27 -14 -11 -38 13 -79 3 -170 -39 -66 -31 -112 -56
-101 -57 10 -1 1 -14 -20 -30 -23 -17 -46 -21 -57 -10 -12 11 -27 1 -40 -24
-24 -46 -166 -104 -177 -72 -4 11 -33 -3 -66 -30 -32 -27 -71 -45 -86 -40 -14
5 -39 -10 -56 -33 -16 -23 -41 -42 -56 -42 -14 0 -37 -14 -51 -30 -14 -17 -30
-26 -36 -21 -6 6 -22 1 -37 -12 -15 -12 -27 -16 -27 -8 0 8 -15 -1 -33 -19
-17 -18 -45 -27 -61 -21 -15 6 -23 2 -16 -9 16 -26 -35 -26 -66 0 -13 11 -20
15 -15 8 13 -19 -41 -68 -75 -68 -16 0 -51 -18 -79 -40 -28 -22 -63 -40 -78
-41 -17 0 -13 -11 12 -30 47 -35 26 -38 -32 -4 -34 20 -44 20 -51 0 -5 -14
-18 -25 -28 -25 -10 0 -55 -23 -100 -51 -45 -29 -94 -47 -108 -42 -15 6 -38
-2 -51 -18 -13 -16 -39 -29 -58 -29 -19 0 -56 -18 -81 -40 -25 -22 -58 -40
-73 -40 -15 0 -27 -10 -27 -23 0 -14 -15 -10 -37 10 -41 38 -103 25 -103 -20
0 -21 13 -26 45 -16 l45 13 -46 -34 c-26 -19 -64 -29 -86 -24 -25 7 -46 -3
-59 -28 -11 -21 -27 -36 -35 -34 -22 6 -107 -23 -200 -69 -65 -32 -91 -37
-102 -19 -22 36 -107 -60 -90 -103 7 -18 3 -33 -8 -33 -11 0 -25 11 -30 25 -7
17 -21 10 -43 -20 -19 -25 -55 -45 -82 -45 -27 0 -49 -8 -49 -18 0 -10 -31
-23 -68 -30 -37 -7 -79 -26 -92 -43 -14 -16 -45 -29 -70 -29 -25 0 -51 -13
-57 -30 -7 -16 -31 -30 -55 -30 -31 0 -39 -9 -30 -32 9 -24 4 -29 -21 -20 -44
17 -107 -4 -107 -36 0 -16 -22 -24 -55 -22 -30 2 -64 -1 -75 -8 -11 -6 -29
-12 -40 -13 -11 0 -18 -12 -15 -26 4 -14 -3 -20 -15 -13 -11 7 -34 -1 -50 -17
-16 -16 -47 -25 -70 -19 -28 7 -40 1 -40 -22 0 -33 -20 -40 -89 -32 -34 3 -35
-1 -13 -28 29 -34 7 -43 -92 -35 -26 3 -53 -12 -66 -36 -12 -23 -38 -41 -58
-41 -21 0 -46 -11 -58 -25 -28 -33 -143 -29 -166 7 -13 21 -17 18 -18 -16 0
-33 10 -42 40 -36 22 4 40 -1 40 -13 0 -67 -90 -1 -96 70 -5 56 0 73 17 62 15
-9 21 -5 15 12 -17 53 -56 43 -56 -15 0 -112 -121 -252 -184 -213 -15 9 -25
-40 -17 -81 7 -37 -90 44 -116 96 -14 30 -39 59 -55 65 -15 6 -23 19 -17 29 6
10 1 18 -13 18 -31 0 -77 61 -77 105 -1 19 -9 33 -19 30 -27 -8 -163 107 -150
128 6 10 3 16 -7 12 -28 -8 -239 210 -248 255 -4 24 -24 40 -47 40 -21 0 -50
22 -64 50 -14 28 -26 42 -26 33 0 -10 -13 -7 -30 7 -16 13 -25 33 -19 42 6 10
2 18 -10 18 -11 0 -21 16 -21 35 -1 30 -3 31 -20 5 -18 -27 -29 -14 -22 26 2
10 -6 12 -16 5 -22 -13 -162 118 -162 151 0 38 -55 77 -98 68 -27 -5 -42 3
-42 21 0 16 -18 40 -40 54 -22 13 -40 32 -40 41 0 9 10 10 22 3 16 -10 16 -3
1 26 -19 35 -59 58 -168 92 -19 7 -35 22 -35 35 0 16 10 15 35 -3 19 -15 -36
43 -122 127 -87 84 -166 149 -175 143 -17 -11 -28 37 -19 81 3 11 -2 13 -11 5
-19 -19 -88 42 -88 78 0 15 -14 27 -31 27 -16 0 -35 14 -42 30 -6 17 -24 30
-39 30 -15 0 -28 14 -28 30 0 17 -14 30 -30 30 -29 0 -81 90 -73 126 2 9 -15
6 -37 -6 -33 -18 -43 -15 -52 14 -19 62 -42 96 -65 99 -13 1 -32 3 -43 5 -11
1 -20 16 -20 32 0 17 -8 30 -17 30 -9 0 -38 29 -65 65 -26 36 -61 65 -78 65
-16 0 -30 12 -30 26 0 14 -13 34 -30 44 -16 11 -21 20 -11 20 11 0 0 14 -25
31 -24 17 -43 51 -42 75 2 42 3 41 16 -5 13 -49 62 -82 62 -43 0 12 -9 22 -20
22 -26 0 -26 114 0 130 13 8 13 25 0 50 -23 44 -27 206 -5 228 22 22 20 60 -4
77 -13 9 -11 15 6 15 17 0 25 23 23 65 -8 131 -1 178 23 163 13 -8 9 7 -10 33
-36 52 -44 88 -14 70 10 -6 25 -1 33 12 8 14 6 18 -8 10 -34 -21 -48 22 -17
51 19 18 23 40 12 70 -11 28 -9 46 5 51 17 5 17 24 0 71 -13 38 -14 64 -3 64
10 0 19 18 19 41 0 22 14 46 32 52 22 9 25 17 8 27 -14 8 16 21 68 29 51 7 92
21 92 30 0 25 100 39 100 13 1 -12 18 1 40 28 22 28 39 43 40 34 0 -9 14 -3
31 15 18 17 45 31 62 31 16 0 43 14 60 30 41 41 89 39 73 -3 -9 -23 -5 -29 11
-19 12 8 23 32 23 53 0 26 14 39 40 39 22 0 40 10 40 21 0 12 9 16 21 8 11 -7
33 -2 48 10 15 12 34 21 44 19 47 -8 87 5 87 29 0 33 91 79 169 84 33 3 63 14
67 26 11 35 233 133 282 125 17 -3 23 6 16 25 -8 19 -3 27 12 22 14 -5 58 8
99 29 48 24 76 30 77 15 1 -16 4 -15 11 1 5 14 58 47 117 75 59 28 113 60 121
72 7 11 31 15 53 8 27 -9 36 -6 27 9 -7 12 0 22 18 22 34 0 349 150 380 181
10 11 39 19 64 19 57 0 147 40 147 66 0 10 22 15 48 9 33 -6 45 -1 39 16 -6
15 18 29 62 37 39 8 71 22 71 33 0 10 18 19 40 19 22 0 58 18 80 40 22 22 53
34 70 27 17 -6 47 1 66 16 19 15 66 42 104 61 39 18 115 54 170 81 191 92 580
252 670 276 75 20 83 27 50 40 -47 19 -45 19 59 27 44 4 83 17 87 29 4 13 16
18 26 12 10 -6 18 -2 18 10 0 11 7 19 15 17 8 -3 85 29 171 70 85 40 165 74
176 74 11 0 15 9 8 20 -7 11 0 20 16 20 33 0 149 56 163 79 6 8 34 11 63 5 37
-7 50 -3 40 13 -9 15 1 23 28 23 27 0 37 8 28 23 -10 16 -4 20 16 12 16 -6 42
-3 58 7 37 23 78 23 78 -1z"/>
<path d="M7465 4580 c-18 -22 -54 -40 -79 -40 -26 0 -46 -9 -46 -19 0 -11 -12
-15 -27 -9 -16 6 -43 -5 -62 -24 -25 -25 -39 -28 -49 -11 -11 17 -25 12 -52
-17 -20 -22 -49 -40 -65 -40 -30 0 -24 -50 7 -51 10 0 38 -12 63 -25 27 -16
45 -17 45 -5 0 17 76 48 126 50 8 1 22 10 30 21 21 30 108 37 125 9 8 -13 26
-17 39 -9 19 12 17 20 -7 34 -47 26 -41 70 13 89 44 16 44 18 10 52 -35 34
-38 33 -71 -5z"/>
<path d="M6883 4310 c-18 -22 -60 -42 -93 -44 -54 -4 -110 -50 -110 -90 0 -29
81 -17 93 14 6 16 19 25 29 19 10 -6 18 -1 18 13 0 17 33 20 121 11 74 -8 117
-5 109 6 -6 11 -27 14 -46 7 -24 -9 -21 -1 11 28 66 59 57 87 -27 81 -44 -3
-86 -21 -105 -45z"/>
<path d="M6592 4169 c-6 -17 -20 -26 -30 -20 -28 17 -82 -10 -82 -41 0 -15 11
-28 25 -28 18 -1 17 -6 -3 -18 -39 -25 -13 -80 37 -77 23 2 41 11 41 19 0 9
14 16 31 16 17 0 26 9 18 21 -7 11 -4 32 6 45 28 38 26 114 -4 114 -15 0 -32
-14 -39 -31z"/>
<path d="M6383 4053 c-13 -15 -17 -33 -9 -40 7 -7 -3 -13 -22 -13 -19 0 -29 8
-23 19 19 30 -24 43 -52 15 -15 -14 -56 -37 -91 -52 -35 -14 -68 -39 -74 -55
-9 -22 -21 -24 -50 -8 -25 13 -44 14 -51 2 -7 -11 -25 -14 -41 -8 -19 7 -41
-14 -63 -61 -19 -40 -48 -71 -66 -70 -23 1 -24 4 -4 12 22 9 22 14 2 27 -31
19 -83 2 -68 -23 6 -10 -6 -18 -28 -18 -55 0 -103 -20 -103 -43 0 -11 11 -13
25 -4 20 12 20 8 0 -16 -15 -18 -46 -27 -80 -22 -41 6 -71 -6 -110 -45 -38
-38 -69 -52 -111 -47 -35 4 -72 -8 -93 -29 -19 -19 -42 -29 -52 -23 -30 18
-126 -83 -113 -119 7 -17 4 -36 -7 -43 -10 -6 -19 -2 -19 8 0 11 -16 24 -35
29 -30 8 -30 10 -2 12 18 1 37 20 43 42 11 44 -34 29 -106 -37 -91 -81 -100
-86 -100 -54 0 43 -26 39 -55 -9 -14 -22 -38 -40 -54 -40 -15 0 -40 -12 -55
-27 -47 -47 -111 -73 -180 -73 -50 -1 -59 -5 -36 -20 24 -16 21 -19 -16 -20
-25 0 -50 -13 -56 -28 -10 -27 -67 -53 -128 -59 -16 -2 -28 -14 -25 -28 3 -14
-4 -25 -15 -25 -11 0 -19 -7 -18 -15 7 -43 -6 -65 -37 -65 -27 -1 -29 -4 -8
-18 21 -13 22 -26 5 -58 -32 -60 -28 -65 37 -60 32 2 54 11 48 20 -5 9 2 16
15 16 14 0 19 6 11 13 -7 8 1 35 17 60 17 26 22 47 10 47 -11 0 -20 14 -20 31
0 17 -7 27 -17 21 -9 -6 -16 3 -16 19 0 16 7 29 16 29 10 0 17 -9 17 -20 0
-38 168 -21 240 24 70 44 80 47 145 53 24 2 38 27 47 83 7 43 21 74 32 68 10
-7 14 -25 8 -40 -7 -17 3 -29 24 -30 20 -1 24 -5 9 -11 -40 -16 -29 -58 15
-58 22 0 41 7 43 15 1 9 3 23 5 32 4 31 65 80 168 136 56 30 98 62 92 71 -20
32 18 17 46 -18 25 -31 27 -29 16 27 -15 76 -1 83 155 77 76 -3 115 3 115 18
0 42 162 133 235 133 41 0 46 5 26 28 -14 18 -16 33 -3 41 11 6 28 -4 39 -23
19 -34 50 -25 56 16 5 40 8 42 34 21 20 -17 37 -10 71 29 32 37 51 45 69 30
18 -15 35 -9 60 20 23 27 43 35 59 23 55 -43 96 -46 75 -6 -25 46 -8 101 32
101 15 0 34 -15 41 -33 11 -29 15 -29 39 4 15 20 27 30 27 22 0 -42 111 49
115 95 5 57 -35 71 -72 25z"/>
<path d="M4180 3065 c0 -14 -7 -24 -15 -22 -40 9 -88 -29 -62 -47 19 -13 11
-16 -26 -8 -39 9 -65 -1 -102 -39 -31 -30 -77 -52 -118 -55 -77 -5 -96 -23
-82 -78 8 -30 14 -33 27 -13 13 21 17 19 18 -8 0 -61 151 -39 156 23 6 65 9
67 113 65 86 -1 91 1 80 45 -7 28 0 58 18 76 19 19 23 39 11 58 -12 20 -17 21
-18 3z"/>
<path d="M3680 2824 c0 -9 -31 -29 -68 -43 -46 -18 -66 -38 -62 -61 9 -46 -84
-29 -97 17 -7 29 -9 29 -11 -2 -1 -23 -19 -35 -52 -35 -27 0 -50 -9 -50 -20 0
-12 -22 -31 -49 -43 -35 -16 -48 -35 -42 -65 4 -23 9 -76 10 -117 0 -42 11
-75 24 -75 14 0 19 27 12 80 -11 75 12 130 30 75 12 -35 114 3 143 54 41 74
112 118 112 70 0 -12 9 -16 21 -8 14 8 14 21 -2 41 -19 22 -17 28 9 28 17 0
32 -9 32 -20 0 -11 14 -20 31 -20 17 0 26 9 19 20 -7 11 1 20 18 20 40 0 57
32 42 80 -12 38 -70 58 -70 24z"/>
<path d="M3355 2045 c-6 -19 -17 -51 -25 -70 -10 -25 -5 -35 18 -35 23 0 32
19 32 70 0 76 -10 90 -25 35z"/>
<path d="M3235 1996 c-5 -14 -4 -68 4 -119 14 -93 13 -127 -8 -209 -8 -34 -3
-43 24 -39 27 4 33 21 28 76 -4 56 2 74 31 81 27 7 25 10 -12 12 -44 2 -46 8
-37 90 10 90 -9 161 -30 108z"/>
</g>
</svg>
